%TF.GenerationSoftware,KiCad,Pcbnew,9.0.1*%
%TF.CreationDate,2025-06-03T19:58:47+02:00*%
%TF.ProjectId,lfo,6c666f2e-6b69-4636-9164-5f7063625858,rev?*%
%TF.SameCoordinates,Original*%
%TF.FileFunction,Soldermask,Top*%
%TF.FilePolarity,Negative*%
%FSLAX46Y46*%
G04 Gerber Fmt 4.6, Leading zero omitted, Abs format (unit mm)*
G04 Created by KiCad (PCBNEW 9.0.1) date 2025-06-03 19:58:47*
%MOMM*%
%LPD*%
G01*
G04 APERTURE LIST*
G04 Aperture macros list*
%AMRoundRect*
0 Rectangle with rounded corners*
0 $1 Rounding radius*
0 $2 $3 $4 $5 $6 $7 $8 $9 X,Y pos of 4 corners*
0 Add a 4 corners polygon primitive as box body*
4,1,4,$2,$3,$4,$5,$6,$7,$8,$9,$2,$3,0*
0 Add four circle primitives for the rounded corners*
1,1,$1+$1,$2,$3*
1,1,$1+$1,$4,$5*
1,1,$1+$1,$6,$7*
1,1,$1+$1,$8,$9*
0 Add four rect primitives between the rounded corners*
20,1,$1+$1,$2,$3,$4,$5,0*
20,1,$1+$1,$4,$5,$6,$7,0*
20,1,$1+$1,$6,$7,$8,$9,0*
20,1,$1+$1,$8,$9,$2,$3,0*%
G04 Aperture macros list end*
%ADD10R,1.700000X1.700000*%
%ADD11C,3.000000*%
%ADD12C,1.700000*%
%ADD13R,1.830000X1.930000*%
%ADD14C,2.130000*%
%ADD15C,1.400000*%
%ADD16O,1.400000X1.400000*%
%ADD17C,1.600000*%
%ADD18R,1.800000X1.800000*%
%ADD19C,1.800000*%
%ADD20R,2.200000X2.200000*%
%ADD21O,2.200000X2.200000*%
%ADD22RoundRect,0.250000X0.550000X-0.950000X0.550000X0.950000X-0.550000X0.950000X-0.550000X-0.950000X0*%
%ADD23O,1.600000X2.400000*%
%ADD24R,1.500000X1.050000*%
%ADD25O,1.500000X1.050000*%
%ADD26R,1.600000X1.600000*%
%ADD27R,3.200000X3.200000*%
%ADD28O,3.200000X3.200000*%
%ADD29O,3.240000X2.720000*%
G04 APERTURE END LIST*
D10*
%TO.C,SW1*%
X136400000Y-22550000D03*
D11*
X136400000Y-25050000D03*
D12*
X136400000Y-27630000D03*
%TD*%
%TO.C,J4*%
X157540000Y-34700000D03*
X155000000Y-34700000D03*
X157540000Y-32160000D03*
X155000000Y-32160000D03*
X157540000Y-29620000D03*
X155000000Y-29620000D03*
X157540000Y-27080000D03*
X155000000Y-27080000D03*
X157540000Y-24540000D03*
D10*
X155000000Y-24540000D03*
%TD*%
D13*
%TO.C,J3*%
X60300000Y-38900000D03*
D14*
X71700000Y-38900000D03*
X63400000Y-38900000D03*
%TD*%
D15*
%TO.C,R2*%
X112270000Y-43080000D03*
D16*
X117350000Y-43080000D03*
%TD*%
D15*
%TO.C,R4*%
X96940000Y-38500000D03*
D16*
X91860000Y-38500000D03*
%TD*%
D15*
%TO.C,R12*%
X104300000Y-26210000D03*
D16*
X104300000Y-31290000D03*
%TD*%
D17*
%TO.C,C4*%
X143150000Y-38100000D03*
X143150000Y-43100000D03*
%TD*%
D15*
%TO.C,R9*%
X84040000Y-17300000D03*
D16*
X78960000Y-17300000D03*
%TD*%
D15*
%TO.C,R11*%
X124650000Y-25350000D03*
D16*
X119570000Y-25350000D03*
%TD*%
D18*
%TO.C,D2*%
X122900000Y-20400000D03*
D19*
X120360000Y-20400000D03*
%TD*%
D15*
%TO.C,R14*%
X118940000Y-13700000D03*
D16*
X113860000Y-13700000D03*
%TD*%
D15*
%TO.C,R16*%
X83045000Y-38575000D03*
D16*
X88125000Y-38575000D03*
%TD*%
D15*
%TO.C,R1*%
X78600000Y-29500000D03*
D16*
X78600000Y-24420000D03*
%TD*%
D15*
%TO.C,R10*%
X122960000Y-16050000D03*
D16*
X128040000Y-16050000D03*
%TD*%
D15*
%TO.C,R7*%
X110575000Y-17725000D03*
D16*
X115655000Y-17725000D03*
%TD*%
D13*
%TO.C,J2*%
X60220000Y-28100000D03*
D14*
X71620000Y-28100000D03*
X63320000Y-28100000D03*
%TD*%
D20*
%TO.C,D1*%
X128200000Y-25071766D03*
D21*
X128200000Y-22531766D03*
%TD*%
D22*
%TO.C,U1*%
X109620000Y-38720000D03*
D23*
X112160000Y-38720000D03*
X114700000Y-38720000D03*
X117240000Y-38720000D03*
X119780000Y-38720000D03*
X122320000Y-38720000D03*
X124860000Y-38720000D03*
X124860000Y-31100000D03*
X122320000Y-31100000D03*
X119780000Y-31100000D03*
X117240000Y-31100000D03*
X114700000Y-31100000D03*
X112160000Y-31100000D03*
X109620000Y-31100000D03*
%TD*%
D15*
%TO.C,R5*%
X74750000Y-34040000D03*
D16*
X74750000Y-28960000D03*
%TD*%
D15*
%TO.C,R6*%
X80200000Y-38200000D03*
D16*
X75120000Y-38200000D03*
%TD*%
D17*
%TO.C,C1*%
X98640000Y-30230000D03*
X98640000Y-25230000D03*
%TD*%
D15*
%TO.C,R13*%
X116970000Y-23350000D03*
D16*
X114430000Y-23350000D03*
%TD*%
D15*
%TO.C,R15*%
X105800000Y-34200000D03*
D16*
X105800000Y-39280000D03*
%TD*%
D15*
%TO.C,R8*%
X99800000Y-39090000D03*
D16*
X99800000Y-34010000D03*
%TD*%
D15*
%TO.C,R3*%
X103760000Y-14650000D03*
D16*
X108840000Y-14650000D03*
%TD*%
D13*
%TO.C,J1*%
X60200000Y-17500000D03*
D14*
X71600000Y-17500000D03*
X63300000Y-17500000D03*
%TD*%
D24*
%TO.C,Q1*%
X109700000Y-24200000D03*
D25*
X109700000Y-22930000D03*
X109700000Y-21660000D03*
%TD*%
D26*
%TO.C,C7*%
X146194888Y-21850000D03*
D17*
X144194888Y-21850000D03*
%TD*%
D26*
%TO.C,C3*%
X146550000Y-38250000D03*
D17*
X148550000Y-38250000D03*
%TD*%
D26*
%TO.C,C5*%
X142500000Y-27000000D03*
D17*
X142500000Y-29000000D03*
%TD*%
D26*
%TO.C,C2*%
X142550000Y-34850000D03*
D17*
X142550000Y-32850000D03*
%TD*%
D27*
%TO.C,D4*%
X156560000Y-40600000D03*
D28*
X152750000Y-40600000D03*
%TD*%
D27*
%TO.C,D3*%
X153795000Y-17600000D03*
D28*
X157605000Y-17600000D03*
%TD*%
D29*
%TO.C,RV1*%
X90600000Y-25000000D03*
X90600000Y-34600000D03*
D18*
X83100000Y-27300000D03*
D19*
X83100000Y-29800000D03*
X83100000Y-32300000D03*
%TD*%
M02*
