%TF.GenerationSoftware,KiCad,Pcbnew,9.0.1*%
%TF.CreationDate,2025-06-03T19:58:47+02:00*%
%TF.ProjectId,lfo,6c666f2e-6b69-4636-9164-5f7063625858,rev?*%
%TF.SameCoordinates,Original*%
%TF.FileFunction,Copper,L2,Bot*%
%TF.FilePolarity,Positive*%
%FSLAX46Y46*%
G04 Gerber Fmt 4.6, Leading zero omitted, Abs format (unit mm)*
G04 Created by KiCad (PCBNEW 9.0.1) date 2025-06-03 19:58:47*
%MOMM*%
%LPD*%
G01*
G04 APERTURE LIST*
G04 Aperture macros list*
%AMRoundRect*
0 Rectangle with rounded corners*
0 $1 Rounding radius*
0 $2 $3 $4 $5 $6 $7 $8 $9 X,Y pos of 4 corners*
0 Add a 4 corners polygon primitive as box body*
4,1,4,$2,$3,$4,$5,$6,$7,$8,$9,$2,$3,0*
0 Add four circle primitives for the rounded corners*
1,1,$1+$1,$2,$3*
1,1,$1+$1,$4,$5*
1,1,$1+$1,$6,$7*
1,1,$1+$1,$8,$9*
0 Add four rect primitives between the rounded corners*
20,1,$1+$1,$2,$3,$4,$5,0*
20,1,$1+$1,$4,$5,$6,$7,0*
20,1,$1+$1,$6,$7,$8,$9,0*
20,1,$1+$1,$8,$9,$2,$3,0*%
G04 Aperture macros list end*
%TA.AperFunction,ComponentPad*%
%ADD10R,1.700000X1.700000*%
%TD*%
%TA.AperFunction,ComponentPad*%
%ADD11C,3.000000*%
%TD*%
%TA.AperFunction,ComponentPad*%
%ADD12C,1.700000*%
%TD*%
%TA.AperFunction,ComponentPad*%
%ADD13R,1.830000X1.930000*%
%TD*%
%TA.AperFunction,ComponentPad*%
%ADD14C,2.130000*%
%TD*%
%TA.AperFunction,ComponentPad*%
%ADD15C,1.400000*%
%TD*%
%TA.AperFunction,ComponentPad*%
%ADD16O,1.400000X1.400000*%
%TD*%
%TA.AperFunction,ComponentPad*%
%ADD17C,1.600000*%
%TD*%
%TA.AperFunction,ComponentPad*%
%ADD18R,1.800000X1.800000*%
%TD*%
%TA.AperFunction,ComponentPad*%
%ADD19C,1.800000*%
%TD*%
%TA.AperFunction,ComponentPad*%
%ADD20R,2.200000X2.200000*%
%TD*%
%TA.AperFunction,ComponentPad*%
%ADD21O,2.200000X2.200000*%
%TD*%
%TA.AperFunction,ComponentPad*%
%ADD22RoundRect,0.250000X0.550000X-0.950000X0.550000X0.950000X-0.550000X0.950000X-0.550000X-0.950000X0*%
%TD*%
%TA.AperFunction,ComponentPad*%
%ADD23O,1.600000X2.400000*%
%TD*%
%TA.AperFunction,ComponentPad*%
%ADD24R,1.500000X1.050000*%
%TD*%
%TA.AperFunction,ComponentPad*%
%ADD25O,1.500000X1.050000*%
%TD*%
%TA.AperFunction,ComponentPad*%
%ADD26R,1.600000X1.600000*%
%TD*%
%TA.AperFunction,ComponentPad*%
%ADD27R,3.200000X3.200000*%
%TD*%
%TA.AperFunction,ComponentPad*%
%ADD28O,3.200000X3.200000*%
%TD*%
%TA.AperFunction,ComponentPad*%
%ADD29O,3.240000X2.720000*%
%TD*%
%TA.AperFunction,ViaPad*%
%ADD30C,0.800000*%
%TD*%
%TA.AperFunction,ViaPad*%
%ADD31C,0.500000*%
%TD*%
%TA.AperFunction,Conductor*%
%ADD32C,0.500000*%
%TD*%
%TA.AperFunction,Conductor*%
%ADD33C,0.400000*%
%TD*%
%TA.AperFunction,Conductor*%
%ADD34C,0.402400*%
%TD*%
%TA.AperFunction,Conductor*%
%ADD35C,0.783400*%
%TD*%
%TA.AperFunction,Conductor*%
%ADD36C,0.529400*%
%TD*%
%TA.AperFunction,Conductor*%
%ADD37C,0.250000*%
%TD*%
G04 APERTURE END LIST*
D10*
%TO.P,SW1,1,A*%
%TO.N,Net-(SW1-A)*%
X136400000Y-22550000D03*
D11*
%TO.P,SW1,2,B*%
%TO.N,Net-(SW1-B)*%
X136400000Y-25050000D03*
D12*
%TO.P,SW1,3,C*%
%TO.N,Net-(SW1-C)*%
X136400000Y-27630000D03*
%TD*%
%TO.P,J4,10,Pin_10*%
%TO.N,Net-(D4-K)*%
X157540000Y-34700000D03*
%TO.P,J4,9,Pin_9*%
X155000000Y-34700000D03*
%TO.P,J4,8,Pin_8*%
%TO.N,GND*%
X157540000Y-32160000D03*
%TO.P,J4,7,Pin_7*%
X155000000Y-32160000D03*
%TO.P,J4,6,Pin_6*%
X157540000Y-29620000D03*
%TO.P,J4,5,Pin_5*%
X155000000Y-29620000D03*
%TO.P,J4,4,Pin_4*%
X157540000Y-27080000D03*
%TO.P,J4,3,Pin_3*%
X155000000Y-27080000D03*
%TO.P,J4,2,Pin_2*%
%TO.N,Net-(D3-A)*%
X157540000Y-24540000D03*
D10*
%TO.P,J4,1,Pin_1*%
X155000000Y-24540000D03*
%TD*%
D13*
%TO.P,J3,S*%
%TO.N,GND*%
X60300000Y-38900000D03*
D14*
%TO.P,J3,T*%
%TO.N,Net-(J3-PadT)*%
X71700000Y-38900000D03*
%TO.P,J3,TN*%
%TO.N,unconnected-(J3-PadTN)*%
X63400000Y-38900000D03*
%TD*%
D15*
%TO.P,R2,1*%
%TO.N,Net-(J2-PadT)*%
X112270000Y-43080000D03*
D16*
%TO.P,R2,2*%
%TO.N,GND*%
X117350000Y-43080000D03*
%TD*%
D15*
%TO.P,R4,1*%
%TO.N,Net-(R15-Pad2)*%
X96940000Y-38500000D03*
D16*
%TO.P,R4,2*%
%TO.N,Net-(J2-PadT)*%
X91860000Y-38500000D03*
%TD*%
D15*
%TO.P,R12,1*%
%TO.N,Net-(C1-Pad2)*%
X104300000Y-26210000D03*
D16*
%TO.P,R12,2*%
%TO.N,Net-(U1B-+)*%
X104300000Y-31290000D03*
%TD*%
D17*
%TO.P,C4,1*%
%TO.N,Vcc*%
X143150000Y-38100000D03*
%TO.P,C4,2*%
%TO.N,GND*%
X143150000Y-43100000D03*
%TD*%
D15*
%TO.P,R9,1*%
%TO.N,Net-(C1-Pad2)*%
X84040000Y-17300000D03*
D16*
%TO.P,R9,2*%
%TO.N,Net-(J1-PadT)*%
X78960000Y-17300000D03*
%TD*%
D15*
%TO.P,R11,1*%
%TO.N,Net-(D1-K)*%
X124650000Y-25350000D03*
D16*
%TO.P,R11,2*%
%TO.N,Net-(U1D--)*%
X119570000Y-25350000D03*
%TD*%
D18*
%TO.P,D2,1,K*%
%TO.N,Net-(D1-A)*%
X122900000Y-20400000D03*
D19*
%TO.P,D2,2,A*%
%TO.N,Net-(D1-K)*%
X120360000Y-20400000D03*
%TD*%
D15*
%TO.P,R14,1*%
%TO.N,Net-(D1-K)*%
X118940000Y-13700000D03*
D16*
%TO.P,R14,2*%
%TO.N,Net-(Q1-C)*%
X113860000Y-13700000D03*
%TD*%
D15*
%TO.P,R16,1*%
%TO.N,Net-(R16-Pad1)*%
X83045000Y-38575000D03*
D16*
%TO.P,R16,2*%
%TO.N,Net-(SW1-B)*%
X88125000Y-38575000D03*
%TD*%
D15*
%TO.P,R1,1*%
%TO.N,Net-(R1-Pad1)*%
X78600000Y-29500000D03*
D16*
%TO.P,R1,2*%
%TO.N,GND*%
X78600000Y-24420000D03*
%TD*%
D15*
%TO.P,R10,1*%
%TO.N,Net-(U1D--)*%
X122960000Y-16050000D03*
D16*
%TO.P,R10,2*%
%TO.N,GND*%
X128040000Y-16050000D03*
%TD*%
D15*
%TO.P,R7,1*%
%TO.N,Net-(C1-Pad2)*%
X110575000Y-17725000D03*
D16*
%TO.P,R7,2*%
%TO.N,Net-(D1-A)*%
X115655000Y-17725000D03*
%TD*%
D13*
%TO.P,J2,S*%
%TO.N,GND*%
X60220000Y-28100000D03*
D14*
%TO.P,J2,T*%
%TO.N,Net-(J2-PadT)*%
X71620000Y-28100000D03*
%TO.P,J2,TN*%
%TO.N,unconnected-(J2-PadTN)*%
X63320000Y-28100000D03*
%TD*%
D20*
%TO.P,D1,1,K*%
%TO.N,Net-(D1-K)*%
X128200000Y-25071766D03*
D21*
%TO.P,D1,2,A*%
%TO.N,Net-(D1-A)*%
X128200000Y-22531766D03*
%TD*%
D22*
%TO.P,U1,1*%
%TO.N,Net-(C1-Pad2)*%
X109620000Y-38720000D03*
D23*
%TO.P,U1,2,-*%
%TO.N,Net-(SW1-B)*%
X112160000Y-38720000D03*
%TO.P,U1,3,+*%
%TO.N,GND*%
X114700000Y-38720000D03*
%TO.P,U1,4,V+*%
%TO.N,Vcc*%
X117240000Y-38720000D03*
%TO.P,U1,5,+*%
%TO.N,Net-(U1B-+)*%
X119780000Y-38720000D03*
%TO.P,U1,6,-*%
%TO.N,GND*%
X122320000Y-38720000D03*
%TO.P,U1,7*%
%TO.N,Net-(R15-Pad2)*%
X124860000Y-38720000D03*
%TO.P,U1,8*%
%TO.N,Net-(D1-K)*%
X124860000Y-31100000D03*
%TO.P,U1,9,-*%
%TO.N,Net-(D1-A)*%
X122320000Y-31100000D03*
%TO.P,U1,10,+*%
%TO.N,Net-(U1C-+)*%
X119780000Y-31100000D03*
%TO.P,U1,11,V-*%
%TO.N,Vee*%
X117240000Y-31100000D03*
%TO.P,U1,12,+*%
%TO.N,Net-(Q1-C)*%
X114700000Y-31100000D03*
%TO.P,U1,13,-*%
%TO.N,Net-(U1D--)*%
X112160000Y-31100000D03*
%TO.P,U1,14*%
%TO.N,Net-(R13-Pad2)*%
X109620000Y-31100000D03*
%TD*%
D15*
%TO.P,R5,1*%
%TO.N,Net-(U1C-+)*%
X74750000Y-34040000D03*
D16*
%TO.P,R5,2*%
%TO.N,GND*%
X74750000Y-28960000D03*
%TD*%
D15*
%TO.P,R6,1*%
%TO.N,Net-(R13-Pad2)*%
X80200000Y-38200000D03*
D16*
%TO.P,R6,2*%
%TO.N,Net-(J3-PadT)*%
X75120000Y-38200000D03*
%TD*%
D17*
%TO.P,C1,1*%
%TO.N,Net-(SW1-C)*%
X98640000Y-30230000D03*
%TO.P,C1,2*%
%TO.N,Net-(C1-Pad2)*%
X98640000Y-25230000D03*
%TD*%
D15*
%TO.P,R13,1*%
%TO.N,Net-(U1D--)*%
X116970000Y-23350000D03*
D16*
%TO.P,R13,2*%
%TO.N,Net-(R13-Pad2)*%
X114430000Y-23350000D03*
%TD*%
D15*
%TO.P,R15,1*%
%TO.N,Net-(U1B-+)*%
X105800000Y-34200000D03*
D16*
%TO.P,R15,2*%
%TO.N,Net-(R15-Pad2)*%
X105800000Y-39280000D03*
%TD*%
D15*
%TO.P,R8,1*%
%TO.N,Net-(U1C-+)*%
X99800000Y-39090000D03*
D16*
%TO.P,R8,2*%
%TO.N,Vcc*%
X99800000Y-34010000D03*
%TD*%
D15*
%TO.P,R3,1*%
%TO.N,Net-(R15-Pad2)*%
X103760000Y-14650000D03*
D16*
%TO.P,R3,2*%
%TO.N,Net-(Q1-B)*%
X108840000Y-14650000D03*
%TD*%
D13*
%TO.P,J1,S*%
%TO.N,GND*%
X60200000Y-17500000D03*
D14*
%TO.P,J1,T*%
%TO.N,Net-(J1-PadT)*%
X71600000Y-17500000D03*
%TO.P,J1,TN*%
%TO.N,unconnected-(J1-PadTN)*%
X63300000Y-17500000D03*
%TD*%
D24*
%TO.P,Q1,1,C*%
%TO.N,Net-(Q1-C)*%
X109700000Y-24200000D03*
D25*
%TO.P,Q1,2,B*%
%TO.N,Net-(Q1-B)*%
X109700000Y-22930000D03*
%TO.P,Q1,3,E*%
%TO.N,GND*%
X109700000Y-21660000D03*
%TD*%
D26*
%TO.P,C7,1*%
%TO.N,GND*%
X146194888Y-21850000D03*
D17*
%TO.P,C7,2*%
%TO.N,Vee*%
X144194888Y-21850000D03*
%TD*%
D26*
%TO.P,C3,1*%
%TO.N,Vcc*%
X146550000Y-38250000D03*
D17*
%TO.P,C3,2*%
%TO.N,GND*%
X148550000Y-38250000D03*
%TD*%
D26*
%TO.P,C5,1*%
%TO.N,Net-(C1-Pad2)*%
X142500000Y-27000000D03*
D17*
%TO.P,C5,2*%
%TO.N,Net-(C2-Pad2)*%
X142500000Y-29000000D03*
%TD*%
D26*
%TO.P,C2,1*%
%TO.N,Net-(SW1-A)*%
X142550000Y-34850000D03*
D17*
%TO.P,C2,2*%
%TO.N,Net-(C2-Pad2)*%
X142550000Y-32850000D03*
%TD*%
D27*
%TO.P,D4,1,K*%
%TO.N,Net-(D4-K)*%
X156560000Y-40600000D03*
D28*
%TO.P,D4,2,A*%
%TO.N,Vee*%
X152750000Y-40600000D03*
%TD*%
D27*
%TO.P,D3,1,K*%
%TO.N,Vcc*%
X153795000Y-17600000D03*
D28*
%TO.P,D3,2,A*%
%TO.N,Net-(D3-A)*%
X157605000Y-17600000D03*
%TD*%
D29*
%TO.P,RV1,*%
%TO.N,*%
X90600000Y-25000000D03*
X90600000Y-34600000D03*
D18*
%TO.P,RV1,1,1*%
%TO.N,Net-(R1-Pad1)*%
X83100000Y-27300000D03*
D19*
%TO.P,RV1,2,2*%
%TO.N,Net-(R16-Pad1)*%
X83100000Y-29800000D03*
%TO.P,RV1,3,3*%
%TO.N,Net-(R15-Pad2)*%
X83100000Y-32300000D03*
%TD*%
D30*
%TO.N,Vee*%
X146175000Y-40675000D03*
D31*
X127000000Y-28450000D03*
D30*
%TO.N,Net-(C1-Pad2)*%
X119675555Y-33345555D03*
X101911980Y-21291980D03*
%TO.N,Net-(R15-Pad2)*%
X96940000Y-35570000D03*
X97200000Y-31790000D03*
X102497500Y-24472500D03*
%TO.N,Net-(R13-Pad2)*%
X107082300Y-32717700D03*
X97225000Y-33425000D03*
%TO.N,Net-(U1B-+)*%
X120175000Y-34250000D03*
%TO.N,Net-(SW1-B)*%
X122970000Y-41580000D03*
X115720000Y-41440000D03*
%TD*%
D32*
%TO.N,GND*%
X104600000Y-22851000D02*
X78611000Y-22851000D01*
D33*
%TO.N,Vee*%
X119890000Y-28450000D02*
X117240000Y-31100000D01*
X127000000Y-28450000D02*
X119890000Y-28450000D01*
X144194888Y-21850000D02*
X144194888Y-27894454D01*
X146175000Y-40675000D02*
X146200000Y-40700000D01*
X145349000Y-39849000D02*
X146175000Y-40675000D01*
X145349000Y-39549000D02*
X145349000Y-39849000D01*
X144194888Y-27894454D02*
X145349000Y-29048566D01*
X145349000Y-29048566D02*
X145349000Y-39549000D01*
D32*
%TO.N,Net-(D1-A)*%
X129751000Y-28378181D02*
X125378181Y-32751000D01*
X123971000Y-32751000D02*
X122320000Y-31100000D01*
X129751000Y-23520766D02*
X129751000Y-28378181D01*
D34*
X115655000Y-17725000D02*
X120225000Y-17725000D01*
D32*
X128762000Y-22531766D02*
X129751000Y-23520766D01*
X125378181Y-32751000D02*
X123971000Y-32751000D01*
D34*
X120225000Y-17725000D02*
X122900000Y-20400000D01*
D32*
X128200000Y-22531766D02*
X128762000Y-22531766D01*
%TO.N,Net-(C1-Pad2)*%
X105478959Y-17725000D02*
X102056980Y-21146980D01*
D35*
X119763810Y-33257300D02*
X120586190Y-33257300D01*
D32*
X136550000Y-36800000D02*
X138388500Y-34961500D01*
D35*
X130816110Y-34096110D02*
X133520000Y-36800000D01*
X112900000Y-35775000D02*
X112565000Y-35775000D01*
X112565000Y-35775000D02*
X109620000Y-38720000D01*
X120586190Y-33257300D02*
X121425000Y-34096110D01*
X113278600Y-36153600D02*
X112900000Y-35775000D01*
D32*
X102056980Y-21146980D02*
X101911980Y-21291980D01*
D35*
X116867510Y-36153600D02*
X113278600Y-36153600D01*
D32*
X138388500Y-34961500D02*
X138388500Y-31111500D01*
X105478959Y-17725000D02*
X110575000Y-17725000D01*
X138388500Y-31111500D02*
X142500000Y-27000000D01*
D35*
X121425000Y-34096110D02*
X130816110Y-34096110D01*
X133520000Y-36800000D02*
X136550000Y-36800000D01*
X119675555Y-33345555D02*
X116867510Y-36153600D01*
X119675555Y-33345555D02*
X119763810Y-33257300D01*
X109620000Y-38720000D02*
X109790425Y-38720000D01*
D32*
%TO.N,Net-(R15-Pad2)*%
X123209000Y-40371000D02*
X106910000Y-40371000D01*
X97150000Y-29820000D02*
X97150000Y-31790000D01*
D33*
X98761000Y-40321000D02*
X96940000Y-38500000D01*
X94350000Y-32300000D02*
X97000000Y-34950000D01*
D32*
X106910000Y-40371000D02*
X98811000Y-40371000D01*
D36*
X106891000Y-40371000D02*
X106910000Y-40371000D01*
D33*
X97000000Y-35510000D02*
X96940000Y-35570000D01*
D32*
X97200000Y-31790000D02*
X97150000Y-31790000D01*
X102470000Y-24500000D02*
X97150000Y-29820000D01*
X97210000Y-31790000D02*
X97200000Y-31790000D01*
D36*
X105800000Y-39280000D02*
X106891000Y-40371000D01*
D33*
X119981000Y-40321000D02*
X98761000Y-40321000D01*
X97000000Y-34950000D02*
X97000000Y-35510000D01*
D32*
X124860000Y-38720000D02*
X123209000Y-40371000D01*
X97210000Y-31790000D02*
X97400000Y-31600000D01*
D33*
X83100000Y-32300000D02*
X94350000Y-32300000D01*
D32*
X98811000Y-40371000D02*
X96940000Y-38500000D01*
D37*
%TO.N,GND*%
X150025000Y-40350000D02*
X149925000Y-40350000D01*
D32*
X77460000Y-21700000D02*
X74940000Y-21700000D01*
X74800000Y-21560000D02*
X64260000Y-21560000D01*
D37*
X148550000Y-38250000D02*
X149774000Y-39474000D01*
D32*
X108251719Y-21660000D02*
X107060719Y-22851000D01*
X121740000Y-43200000D02*
X121580000Y-43360000D01*
X157540000Y-27080000D02*
X157540000Y-32160000D01*
X153860000Y-32160000D02*
X157540000Y-32160000D01*
X78611000Y-23011000D02*
X78600000Y-23022000D01*
X153860000Y-32160000D02*
X152460000Y-32160000D01*
X148862500Y-41412500D02*
X147112500Y-43162500D01*
X125378181Y-37069000D02*
X123971000Y-37069000D01*
X109700000Y-21660000D02*
X108251719Y-21660000D01*
X148600000Y-24500000D02*
X148600000Y-24255112D01*
X155000000Y-32160000D02*
X153860000Y-32160000D01*
X130770964Y-18952995D02*
X130070964Y-18252995D01*
X148550000Y-36070000D02*
X148550000Y-38250000D01*
X117630000Y-43360000D02*
X117350000Y-43080000D01*
D37*
X150025000Y-39725000D02*
X150025000Y-40350000D01*
D32*
X126111000Y-39879000D02*
X126111000Y-37801819D01*
X126668969Y-14851000D02*
X116509000Y-14851000D01*
D37*
X149925000Y-40350000D02*
X148862500Y-41412500D01*
D32*
X152460000Y-27080000D02*
X152460000Y-29650000D01*
X122890000Y-43100000D02*
X143150000Y-43100000D01*
X123971000Y-37069000D02*
X122320000Y-38720000D01*
X106650000Y-22851000D02*
X104600000Y-22851000D01*
X149774000Y-40501000D02*
X148862500Y-41412500D01*
X143297883Y-18952995D02*
X132250000Y-18952995D01*
X152460000Y-27080000D02*
X157540000Y-27080000D01*
X130070964Y-18252995D02*
X126668969Y-14851000D01*
X152460000Y-27080000D02*
X151180000Y-27080000D01*
X122790000Y-43200000D02*
X122890000Y-43100000D01*
D37*
X152460000Y-29620000D02*
X152460000Y-27080000D01*
D32*
X152460000Y-29650000D02*
X152460000Y-32160000D01*
X155000000Y-32160000D02*
X155000000Y-27080000D01*
X155000000Y-29620000D02*
X157540000Y-29620000D01*
X132250000Y-18952995D02*
X130770964Y-18952995D01*
D33*
X74750000Y-28960000D02*
X78600000Y-25110000D01*
D32*
X148600000Y-24255112D02*
X146194888Y-21850000D01*
D37*
X149774000Y-39474000D02*
X149774000Y-40501000D01*
X155000000Y-27080000D02*
X152460000Y-27080000D01*
D32*
X121580000Y-43360000D02*
X117630000Y-43360000D01*
X122790000Y-43200000D02*
X126111000Y-39879000D01*
X78611000Y-22851000D02*
X77460000Y-21700000D01*
X60200000Y-38800000D02*
X60300000Y-38900000D01*
D37*
X148550000Y-38250000D02*
X150025000Y-39725000D01*
D32*
X74940000Y-21700000D02*
X74800000Y-21560000D01*
X116509000Y-14851000D02*
X109700000Y-21660000D01*
X126111000Y-37801819D02*
X125378181Y-37069000D01*
X60200000Y-17500000D02*
X60200000Y-38800000D01*
D33*
X106650000Y-22851000D02*
X106700000Y-22901000D01*
D32*
X155000000Y-29620000D02*
X152490000Y-29620000D01*
X151180000Y-27080000D02*
X148600000Y-24500000D01*
D33*
X78600000Y-25110000D02*
X78600000Y-24420000D01*
D32*
X152460000Y-32160000D02*
X148550000Y-36070000D01*
X78600000Y-23022000D02*
X78600000Y-24420000D01*
X147050000Y-43100000D02*
X147112500Y-43162500D01*
X122790000Y-43200000D02*
X121740000Y-43200000D01*
X143150000Y-43100000D02*
X147050000Y-43100000D01*
X78611000Y-22851000D02*
X78611000Y-23011000D01*
X64260000Y-21560000D02*
X60200000Y-17500000D01*
X152490000Y-29620000D02*
X152460000Y-29650000D01*
X146194888Y-21850000D02*
X143297883Y-18952995D01*
X107060719Y-22851000D02*
X106650000Y-22851000D01*
%TO.N,Net-(U1C-+)*%
X99800000Y-37180000D02*
X100285000Y-37665000D01*
X108075000Y-36600000D02*
X110475000Y-34200000D01*
X100500000Y-37880000D02*
X105420000Y-37880000D01*
D33*
X84650000Y-37180000D02*
X81510000Y-34040000D01*
D32*
X100285000Y-37665000D02*
X100500000Y-37880000D01*
X116680000Y-34200000D02*
X119780000Y-31100000D01*
X110475000Y-34200000D02*
X116680000Y-34200000D01*
X100285000Y-38605000D02*
X99800000Y-39090000D01*
X106700000Y-36600000D02*
X108075000Y-36600000D01*
X100285000Y-37665000D02*
X100285000Y-38605000D01*
X105420000Y-37880000D02*
X106700000Y-36600000D01*
X84650000Y-37180000D02*
X99800000Y-37180000D01*
D33*
X81510000Y-34040000D02*
X74750000Y-34040000D01*
D35*
%TO.N,Net-(R13-Pad2)*%
X98100000Y-32550000D02*
X97225000Y-33425000D01*
D33*
X114430000Y-26562050D02*
X114430000Y-23350000D01*
X109892050Y-31100000D02*
X114430000Y-26562050D01*
D35*
X100350000Y-32550000D02*
X98100000Y-32550000D01*
X100517700Y-32717700D02*
X100350000Y-32550000D01*
D33*
X109620000Y-29830000D02*
X109620000Y-31100000D01*
X109620000Y-31100000D02*
X109892050Y-31100000D01*
D35*
X107082300Y-32717700D02*
X100517700Y-32717700D01*
D33*
%TO.N,Net-(Q1-C)*%
X108419000Y-25481000D02*
X109700000Y-24200000D01*
X114700000Y-31100000D02*
X113099000Y-32701000D01*
X108419000Y-31997470D02*
X108419000Y-25481000D01*
X113099000Y-32701000D02*
X109122530Y-32701000D01*
X109122530Y-32701000D02*
X108419000Y-31997470D01*
D32*
%TO.N,Net-(R1-Pad1)*%
X78600000Y-29500000D02*
X80800000Y-27300000D01*
X80800000Y-27300000D02*
X83100000Y-27300000D01*
D37*
%TO.N,Net-(U1B-+)*%
X119780000Y-34645000D02*
X119780000Y-38720000D01*
X120175000Y-34250000D02*
X119780000Y-34645000D01*
D36*
X119780000Y-37360000D02*
X119780000Y-38720000D01*
D37*
%TO.N,Net-(SW1-B)*%
X122830000Y-41440000D02*
X122970000Y-41580000D01*
X88140000Y-38515000D02*
X88025000Y-38400000D01*
X88140000Y-38515000D02*
X88140000Y-38600000D01*
X115720000Y-41440000D02*
X122830000Y-41440000D01*
%TO.N,Net-(D4-K)*%
X156560000Y-35870000D02*
X156560000Y-40600000D01*
X155000000Y-34700000D02*
X157540000Y-34700000D01*
X157540000Y-34890000D02*
X156560000Y-35870000D01*
X157540000Y-34700000D02*
X157540000Y-34890000D01*
D32*
%TO.N,Net-(J2-PadT)*%
X110949000Y-42951000D02*
X111078000Y-43080000D01*
D33*
X71620000Y-28100000D02*
X71620000Y-32467050D01*
D32*
X96311000Y-42951000D02*
X91860000Y-38500000D01*
D33*
X78853950Y-39701000D02*
X90659000Y-39701000D01*
X90659000Y-39701000D02*
X91860000Y-38500000D01*
D32*
X111078000Y-43080000D02*
X112270000Y-43080000D01*
X110949000Y-42951000D02*
X110650000Y-42951000D01*
X110650000Y-42951000D02*
X96311000Y-42951000D01*
X110650000Y-42951000D02*
X110779000Y-43080000D01*
D33*
X71620000Y-32467050D02*
X78853950Y-39701000D01*
%TD*%
M02*
