M48
; DRILL file {KiCad 9.0.1} date 2025-06-03T19:58:52+0200
; FORMAT={-:-/ absolute / metric / decimal}
; #@! TF.CreationDate,2025-06-03T19:58:52+02:00
; #@! TF.GenerationSoftware,Kicad,Pcbnew,9.0.1
; #@! TF.FileFunction,Plated,1,2,PTH
FMAT,2
METRIC
; #@! TA.AperFunction,Plated,PTH,ViaDrill
T1C0.300
; #@! TA.AperFunction,Plated,PTH,ViaDrill
T2C0.400
; #@! TA.AperFunction,Plated,PTH,ComponentDrill
T3C0.700
; #@! TA.AperFunction,Plated,PTH,ComponentDrill
T4C0.750
; #@! TA.AperFunction,Plated,PTH,ComponentDrill
T5C0.800
; #@! TA.AperFunction,Plated,PTH,ComponentDrill
T6C0.900
; #@! TA.AperFunction,Plated,PTH,ComponentDrill
T7C1.000
; #@! TA.AperFunction,Plated,PTH,ComponentDrill
T8C1.100
; #@! TA.AperFunction,Plated,PTH,ComponentDrill
T9C1.220
; #@! TA.AperFunction,Plated,PTH,ComponentDrill
T10C1.420
; #@! TA.AperFunction,Plated,PTH,ComponentDrill
T11C1.430
; #@! TA.AperFunction,Plated,PTH,ComponentDrill
T12C1.532
; #@! TA.AperFunction,Plated,PTH,ComponentDrill
T13C1.600
; #@! TA.AperFunction,Plated,PTH,ComponentDrill
T14C1.659
; #@! TA.AperFunction,Plated,PTH,ComponentDrill
T15C2.500
%
G90
G05
T1
X127.0Y-28.45
T2
X96.94Y-35.57
X97.2Y-31.79
X97.225Y-33.425
X101.912Y-21.292
X102.498Y-24.473
X107.082Y-32.718
X115.72Y-41.44
X119.676Y-33.346
X120.175Y-34.25
X122.97Y-41.58
X146.175Y-40.675
T3
X74.75Y-28.96
X74.75Y-34.04
X75.12Y-38.2
X78.6Y-24.42
X78.6Y-29.5
X78.96Y-17.3
X80.2Y-38.2
X83.045Y-38.575
X84.04Y-17.3
X88.125Y-38.575
X91.86Y-38.5
X96.94Y-38.5
X99.8Y-34.01
X99.8Y-39.09
X103.76Y-14.65
X104.3Y-26.21
X104.3Y-31.29
X105.8Y-34.2
X105.8Y-39.28
X108.84Y-14.65
X110.575Y-17.725
X112.27Y-43.08
X113.86Y-13.7
X114.43Y-23.35
X115.655Y-17.725
X116.97Y-23.35
X117.35Y-43.08
X118.94Y-13.7
X119.57Y-25.35
X122.96Y-16.05
X124.65Y-25.35
X128.04Y-16.05
T4
X109.7Y-21.66
X109.7Y-22.93
X109.7Y-24.2
T5
X98.64Y-25.23
X98.64Y-30.23
X109.62Y-31.1
X109.62Y-38.72
X112.16Y-31.1
X112.16Y-38.72
X114.7Y-31.1
X114.7Y-38.72
X117.24Y-31.1
X117.24Y-38.72
X119.78Y-31.1
X119.78Y-38.72
X122.32Y-31.1
X122.32Y-38.72
X124.86Y-31.1
X124.86Y-38.72
X142.5Y-27.0
X142.5Y-29.0
X142.55Y-32.85
X142.55Y-34.85
X143.15Y-38.1
X143.15Y-43.1
X144.195Y-21.85
X146.195Y-21.85
X146.55Y-38.25
X148.55Y-38.25
T6
X120.36Y-20.4
X122.9Y-20.4
T7
X83.1Y-27.3
X83.1Y-29.8
X83.1Y-32.3
X136.4Y-22.55
X136.4Y-27.63
X155.0Y-24.54
X155.0Y-27.08
X155.0Y-29.62
X155.0Y-32.16
X155.0Y-34.7
X157.54Y-24.54
X157.54Y-27.08
X157.54Y-29.62
X157.54Y-32.16
X157.54Y-34.7
T8
X128.2Y-22.532
X128.2Y-25.072
T9
X60.2Y-17.5
X60.22Y-28.1
X60.3Y-38.9
T10
X63.3Y-17.5
X63.32Y-28.1
X63.4Y-38.9
T11
X71.6Y-17.5
X71.62Y-28.1
X71.7Y-38.9
T13
X152.75Y-40.6
X153.795Y-17.6
X156.56Y-40.6
X157.605Y-17.6
T15
X136.4Y-25.05
T12
G00X90.085Y-25.0
M15
G01X91.115Y-25.0
M16
G05
T14
G00X90.148Y-34.6
M15
G01X91.052Y-34.6
M16
G05
M30
