%TF.GenerationSoftware,KiCad,Pcbnew,9.0.1*%
%TF.CreationDate,2025-05-18T20:43:38+02:00*%
%TF.ProjectId,lfo,6c666f2e-6b69-4636-9164-5f7063625858,rev?*%
%TF.SameCoordinates,Original*%
%TF.FileFunction,Copper,L1,Top*%
%TF.FilePolarity,Positive*%
%FSLAX46Y46*%
G04 Gerber Fmt 4.6, Leading zero omitted, Abs format (unit mm)*
G04 Created by KiCad (PCBNEW 9.0.1) date 2025-05-18 20:43:38*
%MOMM*%
%LPD*%
G01*
G04 APERTURE LIST*
%TA.AperFunction,ComponentPad*%
%ADD10R,1.830000X1.930000*%
%TD*%
%TA.AperFunction,ComponentPad*%
%ADD11C,2.130000*%
%TD*%
%TA.AperFunction,ComponentPad*%
%ADD12C,1.400000*%
%TD*%
%TA.AperFunction,ComponentPad*%
%ADD13O,1.400000X1.400000*%
%TD*%
%TA.AperFunction,ComponentPad*%
%ADD14O,3.240000X2.720000*%
%TD*%
%TA.AperFunction,ComponentPad*%
%ADD15R,1.800000X1.800000*%
%TD*%
%TA.AperFunction,ComponentPad*%
%ADD16C,1.800000*%
%TD*%
%TA.AperFunction,ComponentPad*%
%ADD17C,1.600000*%
%TD*%
%TA.AperFunction,ComponentPad*%
%ADD18R,2.775000X2.775000*%
%TD*%
%TA.AperFunction,ComponentPad*%
%ADD19C,2.775000*%
%TD*%
%TA.AperFunction,ComponentPad*%
%ADD20R,2.200000X2.200000*%
%TD*%
%TA.AperFunction,ComponentPad*%
%ADD21O,2.200000X2.200000*%
%TD*%
%TA.AperFunction,ComponentPad*%
%ADD22R,1.600000X2.400000*%
%TD*%
%TA.AperFunction,ComponentPad*%
%ADD23O,1.600000X2.400000*%
%TD*%
%TA.AperFunction,ComponentPad*%
%ADD24R,1.500000X1.050000*%
%TD*%
%TA.AperFunction,ComponentPad*%
%ADD25O,1.500000X1.050000*%
%TD*%
%TA.AperFunction,ComponentPad*%
%ADD26R,1.600000X1.600000*%
%TD*%
%TA.AperFunction,ComponentPad*%
%ADD27R,1.700000X1.700000*%
%TD*%
%TA.AperFunction,ComponentPad*%
%ADD28C,1.700000*%
%TD*%
%TA.AperFunction,ComponentPad*%
%ADD29R,3.200000X3.200000*%
%TD*%
%TA.AperFunction,ComponentPad*%
%ADD30O,3.200000X3.200000*%
%TD*%
%TA.AperFunction,ViaPad*%
%ADD31C,0.500000*%
%TD*%
%TA.AperFunction,ViaPad*%
%ADD32C,0.800000*%
%TD*%
%TA.AperFunction,Conductor*%
%ADD33C,0.500000*%
%TD*%
%TA.AperFunction,Conductor*%
%ADD34C,0.250000*%
%TD*%
%TA.AperFunction,Conductor*%
%ADD35C,0.400000*%
%TD*%
%TA.AperFunction,Conductor*%
%ADD36C,0.402400*%
%TD*%
%TA.AperFunction,Conductor*%
%ADD37C,0.783400*%
%TD*%
%TA.AperFunction,Conductor*%
%ADD38C,0.656400*%
%TD*%
%TA.AperFunction,Conductor*%
%ADD39C,0.276200*%
%TD*%
%TA.AperFunction,Conductor*%
%ADD40C,0.657200*%
%TD*%
%TA.AperFunction,Conductor*%
%ADD41C,0.350000*%
%TD*%
%TA.AperFunction,Conductor*%
%ADD42C,0.529400*%
%TD*%
G04 APERTURE END LIST*
D10*
%TO.P,J3,S*%
%TO.N,GND*%
X60300000Y-38900000D03*
D11*
%TO.P,J3,T*%
%TO.N,Net-(J3-PadT)*%
X71700000Y-38900000D03*
%TO.P,J3,TN*%
%TO.N,unconnected-(J3-PadTN)*%
X63400000Y-38900000D03*
%TD*%
D12*
%TO.P,R2,1*%
%TO.N,Net-(J2-PadT)*%
X117710000Y-43200000D03*
D13*
%TO.P,R2,2*%
%TO.N,GND*%
X122790000Y-43200000D03*
%TD*%
D12*
%TO.P,R4,1*%
%TO.N,Net-(R15-Pad2)*%
X96940000Y-38500000D03*
D13*
%TO.P,R4,2*%
%TO.N,Net-(J2-PadT)*%
X91860000Y-38500000D03*
%TD*%
D14*
%TO.P,RV1,*%
%TO.N,*%
X90600000Y-25000000D03*
X90600000Y-34600000D03*
D15*
%TO.P,RV1,1,1*%
%TO.N,Net-(R1-Pad1)*%
X83100000Y-27300000D03*
D16*
%TO.P,RV1,2,2*%
%TO.N,Net-(R16-Pad1)*%
X83100000Y-29800000D03*
%TO.P,RV1,3,3*%
%TO.N,Net-(R15-Pad2)*%
X83100000Y-32300000D03*
%TD*%
D12*
%TO.P,R12,1*%
%TO.N,Net-(C1-Pad2)*%
X106900000Y-26110000D03*
D13*
%TO.P,R12,2*%
%TO.N,Net-(U1B-+)*%
X106900000Y-31190000D03*
%TD*%
D17*
%TO.P,C8,1*%
%TO.N,Net-(SW1-B)*%
X131550000Y-36800000D03*
%TO.P,C8,2*%
%TO.N,Net-(C1-Pad2)*%
X136550000Y-36800000D03*
%TD*%
%TO.P,C4,1*%
%TO.N,Vcc*%
X143150000Y-38100000D03*
%TO.P,C4,2*%
%TO.N,GND*%
X143150000Y-43100000D03*
%TD*%
D12*
%TO.P,R9,1*%
%TO.N,Net-(C1-Pad2)*%
X84040000Y-17300000D03*
D13*
%TO.P,R9,2*%
%TO.N,Net-(J1-PadT)*%
X78960000Y-17300000D03*
%TD*%
D12*
%TO.P,R11,1*%
%TO.N,Net-(D1-K)*%
X124650000Y-25350000D03*
D13*
%TO.P,R11,2*%
%TO.N,Net-(U1D--)*%
X119570000Y-25350000D03*
%TD*%
D15*
%TO.P,D2,1,K*%
%TO.N,Net-(D1-A)*%
X122900000Y-20400000D03*
D16*
%TO.P,D2,2,A*%
%TO.N,Net-(D1-K)*%
X120360000Y-20400000D03*
%TD*%
D12*
%TO.P,R14,1*%
%TO.N,Net-(D1-K)*%
X118940000Y-13700000D03*
D13*
%TO.P,R14,2*%
%TO.N,Net-(Q1-C)*%
X113860000Y-13700000D03*
%TD*%
D12*
%TO.P,R16,1*%
%TO.N,Net-(R16-Pad1)*%
X83045000Y-38575000D03*
D13*
%TO.P,R16,2*%
%TO.N,Net-(SW1-B)*%
X88125000Y-38575000D03*
%TD*%
D12*
%TO.P,R1,1*%
%TO.N,Net-(R1-Pad1)*%
X78600000Y-29500000D03*
D13*
%TO.P,R1,2*%
%TO.N,GND*%
X78600000Y-24420000D03*
%TD*%
D12*
%TO.P,R10,1*%
%TO.N,Net-(U1D--)*%
X124990964Y-18252995D03*
D13*
%TO.P,R10,2*%
%TO.N,GND*%
X130070964Y-18252995D03*
%TD*%
D12*
%TO.P,R7,1*%
%TO.N,Net-(C1-Pad2)*%
X110575000Y-17725000D03*
D13*
%TO.P,R7,2*%
%TO.N,Net-(D1-A)*%
X115655000Y-17725000D03*
%TD*%
D18*
%TO.P,SW1,1,A*%
%TO.N,Net-(SW1-A)*%
X136550000Y-22150000D03*
D19*
%TO.P,SW1,2,B*%
%TO.N,Net-(SW1-B)*%
X136550000Y-26850000D03*
%TO.P,SW1,3,C*%
%TO.N,Net-(SW1-C)*%
X136550000Y-31550000D03*
%TD*%
D10*
%TO.P,J2,S*%
%TO.N,GND*%
X60220000Y-28100000D03*
D11*
%TO.P,J2,T*%
%TO.N,Net-(J2-PadT)*%
X71620000Y-28100000D03*
%TO.P,J2,TN*%
%TO.N,unconnected-(J2-PadTN)*%
X63320000Y-28100000D03*
%TD*%
D20*
%TO.P,D1,1,K*%
%TO.N,Net-(D1-K)*%
X128200000Y-25071766D03*
D21*
%TO.P,D1,2,A*%
%TO.N,Net-(D1-A)*%
X128200000Y-22531766D03*
%TD*%
D22*
%TO.P,U1,1*%
%TO.N,Net-(C1-Pad2)*%
X109620000Y-38720000D03*
D23*
%TO.P,U1,2,-*%
%TO.N,Net-(SW1-B)*%
X112160000Y-38720000D03*
%TO.P,U1,3,+*%
%TO.N,GND*%
X114700000Y-38720000D03*
%TO.P,U1,4,V+*%
%TO.N,Vcc*%
X117240000Y-38720000D03*
%TO.P,U1,5,+*%
%TO.N,Net-(U1B-+)*%
X119780000Y-38720000D03*
%TO.P,U1,6,-*%
%TO.N,GND*%
X122320000Y-38720000D03*
%TO.P,U1,7*%
%TO.N,Net-(R15-Pad2)*%
X124860000Y-38720000D03*
%TO.P,U1,8*%
%TO.N,Net-(D1-K)*%
X124860000Y-31100000D03*
%TO.P,U1,9,-*%
%TO.N,Net-(D1-A)*%
X122320000Y-31100000D03*
%TO.P,U1,10,+*%
%TO.N,Net-(U1C-+)*%
X119780000Y-31100000D03*
%TO.P,U1,11,V-*%
%TO.N,Vee*%
X117240000Y-31100000D03*
%TO.P,U1,12,+*%
%TO.N,Net-(Q1-C)*%
X114700000Y-31100000D03*
%TO.P,U1,13,-*%
%TO.N,Net-(U1D--)*%
X112160000Y-31100000D03*
%TO.P,U1,14*%
%TO.N,Net-(R13-Pad2)*%
X109620000Y-31100000D03*
%TD*%
D12*
%TO.P,R5,1*%
%TO.N,Net-(U1C-+)*%
X74750000Y-34040000D03*
D13*
%TO.P,R5,2*%
%TO.N,GND*%
X74750000Y-28960000D03*
%TD*%
D12*
%TO.P,R6,1*%
%TO.N,Net-(R13-Pad2)*%
X80200000Y-38200000D03*
D13*
%TO.P,R6,2*%
%TO.N,Net-(J3-PadT)*%
X75120000Y-38200000D03*
%TD*%
D17*
%TO.P,C1,1*%
%TO.N,Net-(SW1-C)*%
X98640000Y-30230000D03*
%TO.P,C1,2*%
%TO.N,Net-(C1-Pad2)*%
X98640000Y-25230000D03*
%TD*%
D12*
%TO.P,R13,1*%
%TO.N,Net-(U1D--)*%
X116970000Y-23350000D03*
D13*
%TO.P,R13,2*%
%TO.N,Net-(R13-Pad2)*%
X114430000Y-23350000D03*
%TD*%
D12*
%TO.P,R15,1*%
%TO.N,Net-(U1B-+)*%
X105800000Y-34200000D03*
D13*
%TO.P,R15,2*%
%TO.N,Net-(R15-Pad2)*%
X105800000Y-39280000D03*
%TD*%
D12*
%TO.P,R8,1*%
%TO.N,Net-(U1C-+)*%
X99800000Y-37180000D03*
D13*
%TO.P,R8,2*%
%TO.N,Vcc*%
X99800000Y-32100000D03*
%TD*%
D12*
%TO.P,R3,1*%
%TO.N,Net-(R15-Pad2)*%
X103760000Y-13500000D03*
D13*
%TO.P,R3,2*%
%TO.N,Net-(Q1-B)*%
X108840000Y-13500000D03*
%TD*%
D10*
%TO.P,J1,S*%
%TO.N,GND*%
X60200000Y-17500000D03*
D11*
%TO.P,J1,T*%
%TO.N,Net-(J1-PadT)*%
X71600000Y-17500000D03*
%TO.P,J1,TN*%
%TO.N,unconnected-(J1-PadTN)*%
X63300000Y-17500000D03*
%TD*%
D24*
%TO.P,Q1,1,C*%
%TO.N,Net-(Q1-C)*%
X109700000Y-24200000D03*
D25*
%TO.P,Q1,2,B*%
%TO.N,Net-(Q1-B)*%
X109700000Y-22930000D03*
%TO.P,Q1,3,E*%
%TO.N,GND*%
X109700000Y-21660000D03*
%TD*%
D26*
%TO.P,C7,1*%
%TO.N,GND*%
X146194888Y-21850000D03*
D17*
%TO.P,C7,2*%
%TO.N,Vee*%
X144194888Y-21850000D03*
%TD*%
D26*
%TO.P,C3,1*%
%TO.N,Vcc*%
X146550000Y-38250000D03*
D17*
%TO.P,C3,2*%
%TO.N,GND*%
X148550000Y-38250000D03*
%TD*%
D27*
%TO.P,J4,1,Pin_1*%
%TO.N,Net-(D3-A)*%
X155000000Y-24540000D03*
D28*
%TO.P,J4,2,Pin_2*%
X157540000Y-24540000D03*
%TO.P,J4,3,Pin_3*%
%TO.N,GND*%
X155000000Y-27080000D03*
%TO.P,J4,4,Pin_4*%
X157540000Y-27080000D03*
%TO.P,J4,5,Pin_5*%
X155000000Y-29620000D03*
%TO.P,J4,6,Pin_6*%
X157540000Y-29620000D03*
%TO.P,J4,7,Pin_7*%
X155000000Y-32160000D03*
%TO.P,J4,8,Pin_8*%
X157540000Y-32160000D03*
%TO.P,J4,9,Pin_9*%
%TO.N,Net-(D4-K)*%
X155000000Y-34700000D03*
%TO.P,J4,10,Pin_10*%
X157540000Y-34700000D03*
%TD*%
D26*
%TO.P,C5,1*%
%TO.N,Net-(C1-Pad2)*%
X142500000Y-27000000D03*
D17*
%TO.P,C5,2*%
%TO.N,Net-(C2-Pad2)*%
X142500000Y-29000000D03*
%TD*%
D26*
%TO.P,C2,1*%
%TO.N,Net-(SW1-A)*%
X142550000Y-34850000D03*
D17*
%TO.P,C2,2*%
%TO.N,Net-(C2-Pad2)*%
X142550000Y-32850000D03*
%TD*%
D20*
%TO.P,D4,1,K*%
%TO.N,Net-(D4-K)*%
X156560000Y-40600000D03*
D21*
%TO.P,D4,2,A*%
%TO.N,Vee*%
X146400000Y-40600000D03*
%TD*%
D29*
%TO.P,D3,1,K*%
%TO.N,Vcc*%
X153795000Y-17600000D03*
D30*
%TO.P,D3,2,A*%
%TO.N,Net-(D3-A)*%
X157605000Y-17600000D03*
%TD*%
D31*
%TO.N,Vee*%
X127000000Y-28450000D03*
D32*
%TO.N,Net-(C1-Pad2)*%
X119675555Y-33345555D03*
X121425000Y-36425000D03*
X104400000Y-26350000D03*
%TO.N,Net-(R15-Pad2)*%
X97200000Y-31790000D03*
X102497500Y-24472500D03*
%TO.N,Net-(R13-Pad2)*%
X107082300Y-32717700D03*
X97225000Y-33425000D03*
%TO.N,Net-(U1B-+)*%
X120175000Y-34250000D03*
%TO.N,Net-(SW1-B)*%
X127450000Y-40680000D03*
X122970000Y-41580000D03*
X115720000Y-41440000D03*
%TD*%
D33*
%TO.N,Vcc*%
X108277760Y-36650000D02*
X107176760Y-37751000D01*
X120971000Y-42451000D02*
X117240000Y-38720000D01*
X141829818Y-42451000D02*
X120971000Y-42451000D01*
X99800000Y-33769182D02*
X99800000Y-32100000D01*
D34*
X143150000Y-38100000D02*
X143150000Y-39475000D01*
X143150000Y-39475000D02*
X143977909Y-40302909D01*
D33*
X149777079Y-23717921D02*
X153795000Y-19700000D01*
X149777079Y-35022921D02*
X149777079Y-23717921D01*
X143977909Y-40302909D02*
X141829818Y-42451000D01*
X146030818Y-38250000D02*
X143977909Y-40302909D01*
X103781818Y-37751000D02*
X99800000Y-33769182D01*
X117240000Y-38720000D02*
X115170000Y-36650000D01*
X153795000Y-19700000D02*
X153795000Y-17600000D01*
X115170000Y-36650000D02*
X108277760Y-36650000D01*
X146550000Y-38250000D02*
X149777079Y-35022921D01*
X107176760Y-37751000D02*
X103781818Y-37751000D01*
X146550000Y-38250000D02*
X146030818Y-38250000D01*
D35*
%TO.N,Vee*%
X152495000Y-18200000D02*
X150395000Y-16100000D01*
X150395000Y-16100000D02*
X132350000Y-16100000D01*
X127000000Y-28450000D02*
X126850000Y-28450000D01*
X149013518Y-15900000D02*
X144194888Y-20718630D01*
X144194888Y-20718630D02*
X144194888Y-21850000D01*
X132150000Y-15900000D02*
X132150000Y-24123766D01*
X150195000Y-15900000D02*
X149013518Y-15900000D01*
X152495000Y-18200000D02*
X150195000Y-15900000D01*
X150195000Y-15900000D02*
X132150000Y-15900000D01*
X132150000Y-24123766D02*
X127823766Y-28450000D01*
X127823766Y-28450000D02*
X127000000Y-28450000D01*
D33*
%TO.N,Net-(D1-A)*%
X122900000Y-20400000D02*
X126068234Y-20400000D01*
X126068234Y-20400000D02*
X128200000Y-22531766D01*
%TO.N,Net-(SW1-A)*%
X139089500Y-24689500D02*
X139089500Y-31389500D01*
X136550000Y-22150000D02*
X139089500Y-24689500D01*
X139089500Y-31389500D02*
X142550000Y-34850000D01*
D36*
%TO.N,Net-(C1-Pad2)*%
X110822200Y-31862368D02*
X110822200Y-28572200D01*
D37*
X109340000Y-39000000D02*
X109620000Y-38720000D01*
X119675555Y-33345555D02*
X116695555Y-33345555D01*
D33*
X97797969Y-17300000D02*
X101850964Y-21352995D01*
D37*
X104400000Y-26350000D02*
X102491846Y-26350000D01*
X101150964Y-25009118D02*
X101150964Y-24580000D01*
D38*
X100500964Y-25230000D02*
X101150964Y-24580000D01*
D36*
X111582682Y-32892700D02*
X111852532Y-32892700D01*
D37*
X101150964Y-24580000D02*
X101150964Y-22052995D01*
D33*
X84040000Y-17300000D02*
X97797969Y-17300000D01*
D37*
X111582682Y-32892700D02*
X111369991Y-32680009D01*
X102491846Y-26350000D02*
X101150964Y-25009118D01*
D36*
X111852532Y-32892700D02*
X110822200Y-31862368D01*
D37*
X115717300Y-32892700D02*
X111582682Y-32892700D01*
X106660000Y-26350000D02*
X106900000Y-26110000D01*
X104400000Y-26350000D02*
X106660000Y-26350000D01*
D38*
X98640000Y-25230000D02*
X100500964Y-25230000D01*
D36*
X108360000Y-26110000D02*
X106900000Y-26110000D01*
D37*
X101150964Y-22052995D02*
X101850964Y-21352995D01*
X116695555Y-33345555D02*
X115980000Y-32630000D01*
X115980000Y-32630000D02*
X115717300Y-32892700D01*
D36*
X110822200Y-28572200D02*
X108360000Y-26110000D01*
D33*
%TO.N,Net-(C2-Pad2)*%
X142550000Y-32850000D02*
X142550000Y-29050000D01*
X142550000Y-29050000D02*
X142500000Y-29000000D01*
D39*
%TO.N,Net-(SW1-C)*%
X102345000Y-34545000D02*
X102345000Y-32803630D01*
X99771370Y-30230000D02*
X98640000Y-30230000D01*
X102345000Y-34545000D02*
X102200000Y-34400000D01*
X132939100Y-35160900D02*
X117600000Y-35160900D01*
X117600000Y-35160900D02*
X106925000Y-35160900D01*
X106925000Y-35160900D02*
X102960900Y-35160900D01*
X102345000Y-32803630D02*
X99771370Y-30230000D01*
X102960900Y-35160900D02*
X102345000Y-34545000D01*
X136550000Y-31550000D02*
X132939100Y-35160900D01*
D33*
%TO.N,Net-(D1-K)*%
X120360000Y-15120000D02*
X120360000Y-20400000D01*
D35*
X124650000Y-25350000D02*
X127921766Y-25350000D01*
X120360000Y-24020000D02*
X120360000Y-24155000D01*
X120360000Y-24020000D02*
X122040000Y-25700000D01*
X122040000Y-25700000D02*
X123032500Y-26692500D01*
X123907500Y-27567500D02*
X124860000Y-28520000D01*
X120360000Y-20400000D02*
X120360000Y-24020000D01*
X124860000Y-28520000D02*
X124860000Y-31100000D01*
X123032500Y-26692500D02*
X123307500Y-26692500D01*
X123307500Y-26692500D02*
X124650000Y-25350000D01*
X127921766Y-25350000D02*
X128200000Y-25071766D01*
D33*
X118940000Y-13700000D02*
X120360000Y-15120000D01*
D35*
X123032500Y-26692500D02*
X123907500Y-27567500D01*
%TO.N,Net-(R15-Pad2)*%
X96940000Y-35010000D02*
X97000000Y-34950000D01*
D33*
X104460000Y-22510000D02*
X102497500Y-24472500D01*
X102497500Y-24472500D02*
X102470000Y-24500000D01*
X104460000Y-14200000D02*
X104460000Y-22510000D01*
X103760000Y-13500000D02*
X104460000Y-14200000D01*
D35*
X96940000Y-38500000D02*
X96940000Y-35010000D01*
D40*
X83610000Y-31790000D02*
X83100000Y-32300000D01*
X97150000Y-31790000D02*
X83610000Y-31790000D01*
D33*
%TO.N,Net-(Q1-B)*%
X110294000Y-22930000D02*
X109700000Y-22930000D01*
X108840000Y-13500000D02*
X110901000Y-15561000D01*
X110901000Y-15561000D02*
X110901000Y-22323000D01*
X110901000Y-22323000D02*
X110294000Y-22930000D01*
%TO.N,GND*%
X122790000Y-43200000D02*
X119337760Y-43200000D01*
X119337760Y-43200000D02*
X114857760Y-38720000D01*
X114857760Y-38720000D02*
X114700000Y-38720000D01*
D35*
%TO.N,Net-(R13-Pad2)*%
X107225000Y-32575000D02*
X107082300Y-32717700D01*
D37*
X81192700Y-37207300D02*
X93442700Y-37207300D01*
X93442700Y-37207300D02*
X97025000Y-33625000D01*
X97025000Y-33625000D02*
X97225000Y-33425000D01*
D35*
X108145000Y-32575000D02*
X107225000Y-32575000D01*
X109620000Y-31100000D02*
X108145000Y-32575000D01*
D37*
X80200000Y-38200000D02*
X81192700Y-37207300D01*
D33*
%TO.N,Net-(Q1-C)*%
X109700000Y-24200000D02*
X110832240Y-24200000D01*
X113860000Y-21172240D02*
X113860000Y-13700000D01*
X110832240Y-24200000D02*
X113860000Y-21172240D01*
D35*
%TO.N,Net-(J1-PadT)*%
X71600000Y-17500000D02*
X78760000Y-17500000D01*
X78960000Y-17300000D02*
X89560000Y-27900000D01*
X78760000Y-17500000D02*
X78960000Y-17300000D01*
D34*
%TO.N,Net-(U1B-+)*%
X110807500Y-33132500D02*
X109740000Y-34200000D01*
X120100000Y-34325000D02*
X120175000Y-34250000D01*
X106900000Y-31190000D02*
X105800000Y-32290000D01*
X110746000Y-33071000D02*
X110807500Y-33132500D01*
X105800000Y-32290000D02*
X105800000Y-34200000D01*
X114375000Y-34125000D02*
X119900000Y-34125000D01*
X109740000Y-34200000D02*
X105800000Y-34200000D01*
X120175000Y-34250000D02*
X120330000Y-34095000D01*
X111800000Y-34125000D02*
X114375000Y-34125000D01*
X110807500Y-33132500D02*
X111800000Y-34125000D01*
X119900000Y-34125000D02*
X120100000Y-34325000D01*
D41*
%TO.N,Net-(U1D--)*%
X124990964Y-18229270D02*
X124990964Y-18252995D01*
X112160000Y-30500000D02*
X112160000Y-31100000D01*
D35*
X116960000Y-18000000D02*
X116960000Y-14122950D01*
D41*
X116960000Y-25700000D02*
X116960000Y-22360000D01*
X116960000Y-25700000D02*
X119220000Y-25700000D01*
X118494306Y-12624000D02*
X119385694Y-12624000D01*
D35*
X118483950Y-12599000D02*
X120326918Y-12599000D01*
X116960000Y-25700000D02*
X116960000Y-18000000D01*
X116960000Y-14122950D02*
X118483950Y-12599000D01*
D41*
X119220000Y-25700000D02*
X119570000Y-25350000D01*
X116900000Y-14218306D02*
X118494306Y-12624000D01*
D35*
X124990964Y-17263046D02*
X124990964Y-18252995D01*
D41*
X116960000Y-22360000D02*
X116900000Y-22300000D01*
X116960000Y-25700000D02*
X112160000Y-30500000D01*
X116900000Y-22300000D02*
X116900000Y-14218306D01*
D35*
X120326918Y-12599000D02*
X124990964Y-17263046D01*
D33*
%TO.N,Net-(R16-Pad1)*%
X77400000Y-35500000D02*
X83100000Y-29800000D01*
X83060000Y-38600000D02*
X81860000Y-39800000D01*
X77400000Y-39800000D02*
X77400000Y-35500000D01*
X81860000Y-39800000D02*
X77400000Y-39800000D01*
D38*
%TO.N,Net-(SW1-B)*%
X123704088Y-40680000D02*
X123404888Y-40380800D01*
X131550000Y-36800000D02*
X135950000Y-41200000D01*
X109460000Y-41810000D02*
X112160000Y-39110000D01*
D34*
X114880000Y-41440000D02*
X115720000Y-41440000D01*
D33*
X138388500Y-39611500D02*
X136800000Y-41200000D01*
D42*
X109152500Y-41727500D02*
X109032706Y-41847294D01*
D38*
X127450000Y-40680000D02*
X123704088Y-40680000D01*
D42*
X91277500Y-41727500D02*
X88125000Y-38575000D01*
D34*
X112160000Y-38720000D02*
X114880000Y-41440000D01*
X91387294Y-41847294D02*
X88140000Y-38600000D01*
D38*
X135950000Y-41200000D02*
X136800000Y-41200000D01*
D33*
X138388500Y-28688500D02*
X138388500Y-39611500D01*
D34*
X122970000Y-41580000D02*
X123870000Y-40680000D01*
D38*
X123404888Y-40380800D02*
X122938973Y-40380800D01*
X112160000Y-39110000D02*
X112160000Y-38720000D01*
D34*
X123870000Y-40680000D02*
X127450000Y-40680000D01*
D42*
X109152500Y-41727500D02*
X91277500Y-41727500D01*
D34*
X109032706Y-41847294D02*
X112160000Y-38720000D01*
D38*
X131550000Y-36800000D02*
X127670000Y-40680000D01*
D34*
X109032706Y-41847294D02*
X91387294Y-41847294D01*
D38*
X127670000Y-40680000D02*
X127450000Y-40680000D01*
D33*
X136550000Y-26850000D02*
X138388500Y-28688500D01*
%TO.N,Net-(D3-A)*%
X157605000Y-24475000D02*
X157540000Y-24540000D01*
X157605000Y-17600000D02*
X157605000Y-24475000D01*
X155000000Y-24540000D02*
X157540000Y-24540000D01*
%TO.N,Net-(J3-PadT)*%
X71700000Y-38900000D02*
X74420000Y-38900000D01*
X74420000Y-38900000D02*
X75120000Y-38200000D01*
%TD*%
M02*
